<svg xmlns="http://www.w3.org/2000/svg" viewBox="0 0 512 512">
  <defs>
    <linearGradient id="bg" x1="0" y1="0" x2="1" y2="1">
      <stop offset="0%" stop-color="#fff3da"/>
      <stop offset="100%" stop-color="#d8f0df"/>
    </linearGradient>
  </defs>
  <rect width="512" height="512" rx="120" fill="url(#bg)"/>
  <circle cx="256" cy="256" r="150" fill="#0c7c59" opacity="0.14"/>
  <path d="M160 178h192a28 28 0 0 1 28 28v106a28 28 0 0 1-28 28H160a28 28 0 0 1-28-28V206a28 28 0 0 1 28-28Z" fill="#fffaf0" stroke="#0c7c59" stroke-width="16"/>
  <path d="M185 150c0-27 22-49 49-49h44c27 0 49 22 49 49" fill="none" stroke="#dc8d40" stroke-width="20" stroke-linecap="round"/>
  <text x="256" y="282" text-anchor="middle" font-size="96" font-family="Arial, sans-serif" fill="#0c7c59" font-weight="700">한</text>
</svg>
